<svg xmlns="http://www.w3.org/2000/svg" width="128" height="128" viewBox="0 0 33.866667 33.866667" id="svg4601"><style>.c { fill:#808080; stroke: #ffffff; stroke-width: 0.125px; stroke-linecap:square; stroke-linejoin:round; } .f { stroke: #808080; stroke-width: 1.7727083px; stroke-linejoin:round; } .b { fill: #808080; }</style><g id="layer1"><g id="g38"><path id="path5179" d="M10.834 2.17v29.908l20.69-.142V8.83L24.89 2.195z" class="f" fill="#fff"/><path d="M24.89 2.195V8.83h6.634" id="path5181" class="f" fill="none"/><path class="f" id="rect871" fill="#fff" d="M3.046 20.928h20.38v8.085H3.045z"/><path d="M13.14 21.686c-.1 0-.203.008-.308.02-.827.092-1.55.465-2.016 1.04-.233.29-.394.65-.384 1.046.01.397.222.79.532 1.046.42.347.906.493 1.397.61l-.004.02.68.14.014.004.016.003.014.004c.745.155 1.447.376 1.572.456-.007.017.003.004-.04.055-.155.193-.64.492-1.057.548-.417.055-.966-.086-1.26-.228-.294-.142-.33-.21-.5-.425l-.452-.563-1.136.896.45.562c.172.213.48.57 1.002.823.52.252 1.262.47 2.087.36a.726.72 0 0 0 .002 0c.824-.11 1.532-.504 1.992-1.066.23-.28.4-.63.394-1.036-.008-.404-.24-.81-.566-1.056-.646-.49-1.424-.574-2.188-.732l-.006-.002c-.71-.166-1.386-.4-1.48-.477 0-.002-.006-.014.052-.085.142-.176.63-.468 1.047-.515a.726.72 0 0 0 .004 0c.047-.006.1-.01.155-.01.388-.004.84.136 1.095.266.292.148.325.218.492.435l.438.572 1.156-.87-.44-.572c-.167-.217-.466-.582-.983-.845-.45-.23-1.07-.433-1.772-.425z" id="path3684-7" class="c"/><path d="M20.685 21.85l-1.49 3.83-1.588-3.827-1.343.548 2.283 5.5a.726.72 0 0 0 1.348-.017l2.144-5.516z" id="path4542" class="c"/><path d="M6.348 21.813c-1.157.4-2.056 1.57-2.056 3.08 0 1.513.9 2.683 2.056 3.082 1.158.4 2.59-.04 3.347-1.325l.366-.62-1.253-.725-.366.62c-.458.78-1.05.886-1.614.692-.564-.195-1.083-.753-1.083-1.723 0-.97.52-1.53 1.083-1.724.563-.194 1.156-.088 1.615.69l.367.622 1.254-.724-.365-.622c-.756-1.285-2.19-1.72-3.347-1.323z" id="path4544" class="c"/><path class="b" id="rect923" d="M15.545 10.715h2.646v2.032h-2.645z"/><path class="b" id="rect923-8" d="M18.53 10.718h2.645v2.032H18.53z"/><path class="b" id="rect923-8-5" d="M21.585 10.718h2.646v2.032h-2.645z"/><path class="b" id="rect923-8-8" d="M24.592 10.75h2.646v2.033h-2.646z"/><path class="b" id="rect923-1" d="M15.558 13.105h2.646v2.032h-2.646z"/><path class="b" id="rect923-8-4" d="M18.542 13.108h2.646v2.032h-2.646z"/><path class="b" id="rect923-8-5-6" d="M21.6 13.108h2.645v2.032H21.6z"/><path class="b" id="rect923-8-8-4" d="M24.606 13.14h2.646v2.033h-2.646z"/><path class="b" id="rect923-2" d="M15.558 15.477h2.646v2.032h-2.646z"/><path class="b" id="rect923-8-88" d="M18.542 15.48h2.646v2.032h-2.646z"/><path class="b" id="rect923-8-5-2" d="M21.6 15.48h2.645v2.032H21.6z"/><path class="b" id="rect923-8-8-5" d="M24.606 15.513h2.646v2.032h-2.646z"/></g></g></svg>