<svg xmlns="http://www.w3.org/2000/svg" width="128" height="128" viewBox="0 0 33.866667 33.866667" id="svg4501"><path d="M10.83 2.17v29.9l20.7-.13V8.84L24.88 2.2z" class="f" fill="#fff" stroke="gray" stroke-width="1.9" stroke-linejoin="round" id="path4485"/><path d="M24.9 2.2v6.63h6.62" class="f" fill="none" stroke="gray" stroke-width="1.9" stroke-linejoin="round" id="path4487"/><path class="f" d="M3.05 20.93h20.38V29H3.03z" fill="#fff" stroke="gray" stroke-width="1.9" stroke-linejoin="round" id="path4489"/><path d="M13.93 12H29.1m-15.17 2.1H29.1m-15.08 2.12H25.5" fill="#001384" stroke="gray" stroke-width=".79" id="path4491"/><path style="line-height:normal;font-variant-ligatures:normal;font-variant-position:normal;font-variant-caps:normal;font-variant-numeric:normal;font-variant-alternates:normal;font-feature-settings:normal;text-indent:0;text-align:start;text-decoration-line:none;text-decoration-style:solid;text-decoration-color:#000000;text-transform:none;text-orientation:mixed;shape-padding:0;isolation:auto;mix-blend-mode:normal" d="M5.97 21.94v3.12c0 .48-.03.9-.1 1.05-.06.2-.16.3-.38.4-.3.1-.6.1-.8 0-.3-.1-.4-.2-.4-.3-.1-.1-.1-.4-.1-.8H2.7c0 .4-.02.9.22 1.5.25.56.72.96 1.3 1.1.57.2 1.18.2 1.75 0 .57-.2 1.07-.6 1.3-1.2.24-.6.2-1.1.2-1.6V22z" color="#000" font-family="sans-serif" white-space="normal" overflow="visible" solid-color="#000000" fill="gray" stroke="#fff" stroke-width=".13" id="path4493"/><path d="M9.8884538 21.789915c-.09117 0-.185072.0079-.280799.01975-.7539647.09088-1.4131135.459314-1.8379591 1.027284-.2124229.286454-.3592043.642052-.3500874 1.03321.00912.392145.2023942.78034.4850169 1.03321.382908.342757.8259873.486971 1.2736251.602542l-.00365.01975.6199465.138288.01276.004.01459.003.01276.004c.6792062.153105 1.3192092.371401 1.4331702.450424-.0064.01679.0027.004-.03647.05433-.141311.190639-.583479.485984-.963652.541299-.3801732.05433-.8806885-.08495-1.1487242-.225213-.2680255-.140264-.3008461-.207431-.4558327-.419803l-.4120799-.556117-1.0356752.885044.4102587.555128c.1568099.210395.4376092.56303.9135092.812937.4740766.248918 1.1505469.464253 1.9026881.355598a.66188394.71119616 0 0 0 .0018 0c.751229-.108655 1.396702-.497838 1.816078-1.052966.209688-.276576.364674-.622296.359204-1.023332-.0073-.399059-.218803-.800095-.516012-1.043087-.588949-.484008-1.298241-.56698-1.994769-.723049l-.0055-.002c-.6473072-.16397-1.2636072-.395109-1.3493057-.471167 0-.002-.00547-.01383.047408-.08396.1294594-.173848.5743624-.462277.9545355-.508703a.66188394.71119616 0 0 0 .0036 0c.04285-.0059.09117-.0099.141311-.0099.3537342-.004.7658162.134337.9982962.262747.266212.14619.296298.215334.448549.429681l.399319.565006 1.053908-.859362-.401141-.565006c-.152152-.214347-.424746-.574884-.896088-.834668-.410258-.227187-.975503-.427705-1.6155072-.419803z" id="path3684-7" class="c" fill="gray" stroke="#fff" stroke-width=".12499999" stroke-linecap="square" stroke-linejoin="round"/><path style="line-height:normal;font-variant-ligatures:normal;font-variant-position:normal;font-variant-caps:normal;font-variant-numeric:normal;font-variant-alternates:normal;font-feature-settings:normal;text-indent:0;text-align:start;text-decoration-line:none;text-decoration-style:solid;text-decoration-color:#000000;text-transform:none;text-orientation:mixed;shape-padding:0;isolation:auto;mix-blend-mode:normal" d="M15.099548 21.879491c-1.6 0-2.83 1.44-2.83 3.100001 0 1.64 1.23 3.079999 2.84 3.079999 1.7 0 2.9-1.439999 2.9-3.1 0-1.64-1.2-3.08-2.8-3.08zm0 1.52c.7 0 1.34.65 1.34 1.57 0 .920001-.64 1.58-1.33 1.58-.6 0-1.3-.659999-1.3-1.58 0-.92.7-1.57 1.4-1.57z" overflow="visible" id="path4497" color="#000" font-family="sans-serif" white-space="normal" solid-color="#000000" fill="gray" stroke="#fff" stroke-width=".13" stroke-linecap="square" stroke-linejoin="bevel"/><path style="line-height:normal;font-variant-ligatures:normal;font-variant-position:normal;font-variant-caps:normal;font-variant-numeric:normal;font-variant-alternates:normal;font-feature-settings:normal;text-indent:0;text-align:start;text-decoration-line:none;text-decoration-style:solid;text-decoration-color:#000000;text-transform:none;text-orientation:mixed;shape-padding:0;isolation:auto;mix-blend-mode:normal" d="M19.104407 21.886411l-1.34.47v5.6h1.6v-3.44l2.8 3.5 1.4-.47v-5.49h-1.61v3.34z" overflow="visible" id="path4499" color="#000" font-family="sans-serif" white-space="normal" solid-color="#000000" fill="gray" stroke="#fff" stroke-width=".13" stroke-linejoin="bevel"/></svg>