<svg xmlns="http://www.w3.org/2000/svg" width="128" height="128" viewBox="0 0 33.866667 33.866667"><path d="M10.83 2.17v29.9l20.7-.13V8.84L24.88 2.2z" class="f" fill="#fff" stroke="gray" stroke-width="1.9" stroke-linejoin="round"/><path d="M24.9 2.2v6.63h6.62" class="f" fill="none" stroke="gray" stroke-width="1.9" stroke-linejoin="round"/><path class="f" d="M3.05 20.93h20.38V29H3.03z" fill="#fff" stroke="gray" stroke-width="1.9" stroke-linejoin="round"/><path d="M13.93 12H29.1m-15.17 2.1H29.1m-15.08 2.12H25.5" fill="#001384" stroke="gray" stroke-width=".79"/><path style="line-height:normal;font-variant-ligatures:normal;font-variant-position:normal;font-variant-caps:normal;font-variant-numeric:normal;font-variant-alternates:normal;font-feature-settings:normal;text-indent:0;text-align:start;text-decoration-line:none;text-decoration-style:solid;text-decoration-color:#000000;text-transform:none;text-orientation:mixed;shape-padding:0;isolation:auto;mix-blend-mode:normal" d="M5.97 21.94v3.12c0 .48-.03.9-.1 1.05-.06.2-.16.3-.38.4-.3.1-.6.1-.8 0-.3-.1-.4-.2-.4-.3-.1-.1-.1-.4-.1-.8H2.7c0 .4-.02.9.22 1.5.25.56.72.96 1.3 1.1.57.2 1.18.2 1.75 0 .57-.2 1.07-.6 1.3-1.2.24-.6.2-1.1.2-1.6V22z" color="#000" font-family="sans-serif" white-space="normal" overflow="visible" solid-color="#000000" fill="gray" stroke="#fff" stroke-width=".13"/><path class="c" d="M9.87 21.8c-.1 0-.2 0-.3.02-.76.1-1.43.44-1.86 1-.2.27-.3.62-.3 1s.2.75.5 1c.4.33.9.47 1.3.58v.02l.6.14h.1c.7.16 1.4.37 1.5.45v.1c-.13.2-.6.5-1 .5-.4.1-.9-.1-1.15-.2-.26-.1-.3-.2-.45-.4l-.43-.5-1.04.9.44.57c.14.2.43.54.9.78.47.28 1.16.5 1.93.38.76-.1 1.4-.46 1.84-1 .2-.27.38-.6.38-1s-.23-.77-.53-1c-.6-.5-1.35-.56-2.06-.7-.7-.17-1.3-.4-1.4-.47l.08-.08c.12-.2.57-.5.96-.5h.1c.34 0 .76.1 1 .2.26.13.3.2.45.4l.4.55 1.1-.86-.4-.55c-.17-.2-.45-.54-.93-.8-.4-.2-.96-.4-1.62-.4z" fill="gray" stroke="#fff" stroke-width=".12" stroke-linecap="square" stroke-linejoin="round"/><path style="line-height:normal;font-variant-ligatures:normal;font-variant-position:normal;font-variant-caps:normal;font-variant-numeric:normal;font-variant-alternates:normal;font-feature-settings:normal;text-indent:0;text-align:start;text-decoration-line:none;text-decoration-style:solid;text-decoration-color:#000000;text-transform:none;text-orientation:mixed;shape-padding:0;isolation:auto;mix-blend-mode:normal" d="M15.2 21.88c-1.6 0-2.83 1.44-2.83 3.1 0 1.64 1.23 3.08 2.84 3.08 1.7 0 2.9-1.44 2.9-3.1 0-1.64-1.2-3.08-2.8-3.08zm0 1.52c.7 0 1.34.65 1.34 1.57s-.64 1.58-1.33 1.58c-.6 0-1.3-.66-1.3-1.58s.7-1.57 1.4-1.57z" color="#000" font-family="sans-serif" white-space="normal" overflow="visible" solid-color="#000000" fill="gray" stroke="#fff" stroke-width=".13" stroke-linecap="square" stroke-linejoin="bevel"/><path style="line-height:normal;font-variant-ligatures:normal;font-variant-position:normal;font-variant-caps:normal;font-variant-numeric:normal;font-variant-alternates:normal;font-feature-settings:normal;text-indent:0;text-align:start;text-decoration-line:none;text-decoration-style:solid;text-decoration-color:#000000;text-transform:none;text-orientation:mixed;shape-padding:0;isolation:auto;mix-blend-mode:normal" d="M19.15 21.83l-1.34.47v5.6h1.6v-3.44l2.8 3.5 1.4-.47V22H22v3.34z" color="#000" font-family="sans-serif" white-space="normal" overflow="visible" solid-color="#000000" fill="gray" stroke="#fff" stroke-width=".13" stroke-linejoin="bevel"/></svg>