<svg xmlns="http://www.w3.org/2000/svg" width="128" height="128" viewBox="0 0 33.866667 33.866667"><path d="M10.83 2.17v29.9l20.7-.13V8.84L24.88 2.2z" class="f" fill="#fff" stroke="gray" stroke-width="1.9" stroke-linejoin="round"/><path d="M24.9 2.2v6.63h6.62" class="f" fill="none" stroke="gray" stroke-width="1.9" stroke-linejoin="round"/><path class="f" d="M3.05 20.93h20.38V29H3.03z" fill="#fff" stroke="gray" stroke-width="1.9" stroke-linejoin="round"/><path d="M13.93 12H29.1m-15.17 2.1H29.1m-15.08 2.12H25.5" fill="#001384" stroke="gray" stroke-width=".79"/><path style="line-height:normal;font-variant-ligatures:normal;font-variant-position:normal;font-variant-caps:normal;font-variant-numeric:normal;font-variant-alternates:normal;font-feature-settings:normal;text-indent:0;text-align:start;text-decoration-line:none;text-decoration-style:solid;text-decoration-color:#000000;text-transform:none;text-orientation:mixed;shape-padding:0;isolation:auto;mix-blend-mode:normal" d="M5.56 21.8l-1.04.94 2 2.23-2 2.17 1.04.95 1.9-2.1 1.88 2.06 1.04-.93-1.96-2.17 1.95-2.13-1.03-.94-1.86 2.02z" color="#000" font-family="sans-serif" white-space="normal" overflow="visible" solid-color="#000000" fill="gray" stroke="#fff" stroke-width=".13"/><path style="line-height:normal;font-variant-ligatures:normal;font-variant-position:normal;font-variant-caps:normal;font-variant-numeric:normal;font-variant-alternates:normal;font-feature-settings:normal;text-indent:0;text-align:start;text-decoration-line:none;text-decoration-style:solid;text-decoration-color:#000000;text-transform:none;text-orientation:mixed;shape-padding:0;isolation:auto;mix-blend-mode:normal" d="M11.82 21.73l-1.33.32v5.92h1.4V24.9l.9 1.77h1.23l.92-1.76V28h1.4v-5.92l-1.32-.32-1.62 3.1z" color="#000" font-family="sans-serif" white-space="normal" overflow="visible" solid-color="#000000" fill="gray" stroke="#fff" stroke-width=".13" stroke-linejoin="bevel"/><path style="line-height:normal;font-variant-ligatures:normal;font-variant-position:normal;font-variant-caps:normal;font-variant-numeric:normal;font-variant-alternates:normal;font-feature-settings:normal;text-indent:0;text-align:start;text-decoration-line:none;text-decoration-style:solid;text-decoration-color:#000000;text-transform:none;text-orientation:mixed;shape-padding:0;isolation:auto;mix-blend-mode:normal" d="M17.44 21.68v6.24h4.26v-1.4h-2.86v-4.84z" color="#000" font-family="sans-serif" white-space="normal" overflow="visible" solid-color="#000000" fill="gray" stroke="#fff" stroke-width=".13"/></svg>