<svg xmlns="http://www.w3.org/2000/svg" width="128" height="128" viewBox="0 0 33.866667 33.866667"><path d="M10.834 2.17v29.908l20.69-.142V8.83L24.89 2.195z" class="f" fill="#fff" stroke="gray" stroke-width="1.9" stroke-linejoin="round"/><path d="M24.89 2.195V8.83h6.634" class="f" fill="none" stroke="gray" stroke-width="1.9" stroke-linejoin="round"/><path class="f" d="M3.046 20.928h20.38v8.085H3.046z" fill="#fff" stroke="gray" stroke-width="1.9" stroke-linejoin="round"/><path style="line-height:normal;font-variant-ligatures:normal;font-variant-position:normal;font-variant-caps:normal;font-variant-numeric:normal;font-variant-alternates:normal;font-feature-settings:normal;text-indent:0;text-align:start;text-decoration-line:none;text-decoration-style:solid;text-decoration-color:#000000;text-transform:none;text-orientation:mixed;shape-padding:0;isolation:auto;mix-blend-mode:normal" d="M5.62 21.618l-1.516 1.285 1.814 2.032-1.79 1.965 1.467 1.337 1.65-1.813L8.84 28.21l1.517-1.283-1.765-1.978 1.742-1.91L8.867 21.7 7.265 23.46l-1.643-1.84z" color="#000" font-family="sans-serif" white-space="normal" overflow="visible" solid-color="#000000" stroke-width=".066" stroke="#fff" fill="gray"/><path style="line-height:normal;font-variant-ligatures:normal;font-variant-position:normal;font-variant-caps:normal;font-variant-numeric:normal;font-variant-alternates:normal;font-feature-settings:normal;text-indent:0;text-align:start;text-decoration-line:none;text-decoration-style:solid;text-decoration-color:#000000;text-transform:none;text-orientation:mixed;shape-padding:0;isolation:auto;mix-blend-mode:normal" d="M12.56 21.545l-1.888.43v6.117h1.984v-1.766l.248.516h1.787l.25-.516v1.766h1.987v-6.117l-1.887-.43-1.24 2.578z" color="#000" font-family="sans-serif" white-space="normal" overflow="visible" solid-color="#000000" fill="gray" stroke="#fff" stroke-width=".066" stroke-linejoin="bevel"/><path style="line-height:normal;font-variant-ligatures:normal;font-variant-position:normal;font-variant-caps:normal;font-variant-numeric:normal;font-variant-alternates:normal;font-feature-settings:normal;text-indent:0;text-align:start;text-decoration-line:none;text-decoration-style:solid;text-decoration-color:#000000;text-transform:none;text-orientation:mixed;shape-padding:0;isolation:auto;mix-blend-mode:normal" d="M17.588 21.61v6.576h4.65V26.2H19.57v-4.59z" color="#000" font-family="sans-serif" white-space="normal" overflow="visible" solid-color="#000000" fill="gray" stroke="#fff" stroke-width=".125"/><path d="M13.933 11.987h15.174m-15.174 2.117h15.174m-15.09 2.116h11.47" fill="#001384" stroke="gray" stroke-width=".794"/></svg>