<svg xmlns="http://www.w3.org/2000/svg" width="128" height="128" viewBox="0 0 33.866667 33.866667"><path d="M10.83 2.17v29.9l20.7-.13V8.84L24.88 2.2z" class="f" fill="#fff" stroke="#001384" stroke-width="1.9" stroke-linejoin="round"/><path d="M24.9 2.2v6.63h6.62" class="f" fill="none" stroke="#001384" stroke-width="1.9" stroke-linejoin="round"/><path class="f" d="M3.05 20.93h20.38V29H3.03z" fill="#fff" stroke="#001384" stroke-width="1.9" stroke-linejoin="round"/><path style="line-height:normal;font-variant-ligatures:normal;font-variant-position:normal;font-variant-caps:normal;font-variant-numeric:normal;font-variant-alternates:normal;font-feature-settings:normal;text-indent:0;text-align:start;text-decoration-line:none;text-decoration-style:solid;text-decoration-color:#000000;text-transform:none;text-orientation:mixed;shape-padding:0;isolation:auto;mix-blend-mode:normal" d="M5.62 21.62L4.1 22.9l1.82 2.04-1.8 1.96 1.48 1.34 1.65-1.82 1.6 1.8 1.5-1.3-1.76-1.97 1.7-1.92-1.47-1.33-1.6 1.76-1.65-1.84z" color="#000" font-family="sans-serif" white-space="normal" overflow="visible" solid-color="#000000" stroke-width=".07" stroke="#fff" fill="#001384"/><path style="line-height:normal;font-variant-ligatures:normal;font-variant-position:normal;font-variant-caps:normal;font-variant-numeric:normal;font-variant-alternates:normal;font-feature-settings:normal;text-indent:0;text-align:start;text-decoration-line:none;text-decoration-style:solid;text-decoration-color:#000000;text-transform:none;text-orientation:mixed;shape-padding:0;isolation:auto;mix-blend-mode:normal" d="M12.56 21.54l-1.9.43v6.12h2v-1.8l.24.5h1.8l.24-.5v1.73h1.98V21.9l-1.88-.42-1.24 2.57z" color="#000" font-family="sans-serif" white-space="normal" overflow="visible" solid-color="#000000" fill="#001384" stroke="#fff" stroke-width=".07" stroke-linejoin="bevel"/><path style="line-height:normal;font-variant-ligatures:normal;font-variant-position:normal;font-variant-caps:normal;font-variant-numeric:normal;font-variant-alternates:normal;font-feature-settings:normal;text-indent:0;text-align:start;text-decoration-line:none;text-decoration-style:solid;text-decoration-color:#000000;text-transform:none;text-orientation:mixed;shape-padding:0;isolation:auto;mix-blend-mode:normal" d="M17.6 21.6v6.6h4.64v-2h-2.67v-4.6z" color="#000" font-family="sans-serif" white-space="normal" overflow="visible" solid-color="#000000" fill="#001384" stroke="#fff" stroke-width=".12"/><path d="M13.93 12H29.1m-15.17 2.1H29.1m-15.08 2.12H25.5" fill="#001384" stroke="#001384" stroke-width=".79"/></svg>